M48
;Layer_Color=9474304
;FILE_FORMAT=2:5
INCH,LZ
;TYPE=PLATED
T1F00S00C0.02800
T2F00S00C0.03000
T3F00S00C0.03937
T4F00S00C0.04724
%
T01
X0220328Y0064672
X01875Y01475
T02
X011Y001
X012
X013
X014
X015
X016
X017
X018
X02
X021
X022
X023
X024
X025
X019Y02
X018
X0164
X0154
X0144
X0134
X0124
X0114
X0104
X0094
X0084
X0074
X02
X021
X022
X023
X024
X025
T03
X0072342Y-0045118
X01Y-0045
X0115
X013
X01825
X01675Y-0025315
X0057342Y-0025433
X021Y-0045
X0225
X024
X0062382Y0060157
Y0075157
Y0090157
X0062382Y0125157
X0082067Y0140157
X00675Y0235
X00525Y0254685
X0095Y0255
X011
X0125
X0162657Y0255118
X0177657Y0235433
X0205157Y0255118
X0220157
X0235157
T04
X02575Y0065
Y0075
Y0125
Y0135
Y0145
M30
