G04*
G04 #@! TF.GenerationSoftware,Altium Limited,Altium Designer,22.9.1 (49)*
G04*
G04 Layer_Physical_Order=2*
G04 Layer_Color=16711680*
%FSLAX25Y25*%
%MOIN*%
G70*
G04*
G04 #@! TF.SameCoordinates,BFF4783A-9A9A-4BA5-AF34-FCE32B05B8FC*
G04*
G04*
G04 #@! TF.FilePolarity,Positive*
G04*
G01*
G75*
%ADD12C,0.01000*%
%ADD29C,0.05906*%
%ADD30R,0.05906X0.05906*%
%ADD31C,0.07874*%
%ADD32R,0.07874X0.07874*%
%ADD33R,0.05906X0.05906*%
%ADD34C,0.06000*%
%ADD35R,0.06000X0.06000*%
%ADD36C,0.05000*%
D12*
X104000Y200000D02*
X156500Y147500D01*
X187500D01*
X220000Y10000D02*
X220164Y10164D01*
Y64507D02*
X220328Y64672D01*
X220164Y10164D02*
Y64507D01*
X55929Y-929D02*
Y83705D01*
Y-929D02*
X100000Y-45000D01*
X55929Y83705D02*
X62382Y90157D01*
X57929Y12071D02*
Y62002D01*
Y12071D02*
X115000Y-45000D01*
X57929Y62002D02*
X62382Y66454D01*
Y75157D01*
X115500Y8136D02*
X130000Y-6364D01*
Y-45000D02*
Y-6364D01*
X115500Y8136D02*
Y10864D01*
X66835Y59529D02*
X115500Y10864D01*
X63010Y59529D02*
X66835D01*
X62382Y60157D02*
X63010Y59529D01*
X106453Y-51453D02*
X216453D01*
X100000Y-45000D02*
X106453Y-51453D01*
X115000Y-45000D02*
X119453Y-49453D01*
X165547D01*
X174453Y-40547D01*
X211844D01*
X216297Y-45000D01*
X225000D01*
X250000Y-35000D02*
X262937Y-22063D01*
X240000Y-45000D02*
X250000Y-35000D01*
X130000Y-45000D02*
X140000Y-35000D01*
X250000D01*
X210000Y-45000D02*
X216453Y-51453D01*
X242673D01*
X266937Y-27189D02*
Y135563D01*
X257500Y145000D02*
X266937Y135563D01*
X242673Y-51453D02*
X266937Y-27189D01*
X225000Y-45000D02*
X229453Y-49453D01*
X241844D01*
X264937Y-26360D01*
Y125252D01*
X260937Y129252D02*
X264937Y125252D01*
X260937Y129252D02*
Y131563D01*
X257500Y135000D02*
X260937Y131563D01*
X257500Y125000D02*
X262937Y119563D01*
Y-22063D02*
Y119563D01*
X105224Y244776D02*
X215500D01*
X95000Y255000D02*
X105224Y244776D01*
X125899Y255899D02*
X128399D01*
X125000Y255000D02*
X125899Y255899D01*
X140000Y267500D02*
X252500D01*
X128399Y255899D02*
X140000Y267500D01*
X252500D02*
X257500Y262500D01*
Y232776D02*
Y262500D01*
X205157Y255118D02*
X215500Y244776D01*
Y167000D02*
Y244776D01*
Y167000D02*
X257500Y125000D01*
X224500Y168000D02*
Y208161D01*
X220157Y212504D02*
X224500Y208161D01*
Y168000D02*
X257500Y135000D01*
X220157Y212504D02*
Y255118D01*
X235157D02*
X257500Y232776D01*
Y145000D02*
Y232776D01*
X200295Y212795D02*
X205500Y207591D01*
X177657Y235433D02*
X200295Y212795D01*
X67500Y235000D02*
X89705Y212795D01*
X200295D01*
X205500Y117000D02*
X257500Y65000D01*
X205500Y117000D02*
Y207591D01*
X200000Y30000D02*
Y200000D01*
Y30000D02*
X220000Y10000D01*
D29*
X95000Y255000D02*
D03*
X125000D02*
D03*
X162657Y255118D02*
D03*
X177657Y235433D02*
D03*
X205157Y255118D02*
D03*
X235157D02*
D03*
X52500Y254685D02*
D03*
X67500Y235000D02*
D03*
X240000Y-45000D02*
D03*
X210000D02*
D03*
X182500D02*
D03*
X167500Y-25315D02*
D03*
X130000Y-45000D02*
D03*
X100000D02*
D03*
X72342Y-45118D02*
D03*
X57342Y-25433D02*
D03*
X62382Y60157D02*
D03*
Y90157D02*
D03*
X62382Y125157D02*
D03*
X82067Y140157D02*
D03*
D30*
X110000Y255000D02*
D03*
X220157Y255118D02*
D03*
X225000Y-45000D02*
D03*
X115000D02*
D03*
D31*
X257500Y65000D02*
D03*
Y75000D02*
D03*
Y125000D02*
D03*
Y145000D02*
D03*
D32*
Y135000D02*
D03*
D33*
X62382Y75157D02*
D03*
D34*
X160000Y10000D02*
D03*
X170000D02*
D03*
X110000D02*
D03*
X120000D02*
D03*
X130000D02*
D03*
X140000D02*
D03*
X150000D02*
D03*
X230000Y200000D02*
D03*
X240000D02*
D03*
X180000D02*
D03*
X190000D02*
D03*
X200000D02*
D03*
X210000D02*
D03*
X220000D02*
D03*
X74000D02*
D03*
X84000D02*
D03*
X94000D02*
D03*
X104000D02*
D03*
X114000D02*
D03*
X124000D02*
D03*
X134000D02*
D03*
X144000D02*
D03*
X154000D02*
D03*
X250000Y10000D02*
D03*
X240000D02*
D03*
X230000D02*
D03*
X220000D02*
D03*
X210000D02*
D03*
D35*
X180000D02*
D03*
X250000Y200000D02*
D03*
X164000D02*
D03*
X200000Y10000D02*
D03*
D36*
X187500Y147500D02*
D03*
X220328Y64672D02*
D03*
M02*
