G04*
G04 #@! TF.GenerationSoftware,Altium Limited,Altium Designer,22.9.1 (49)*
G04*
G04 Layer_Color=16711935*
%FSLAX25Y25*%
%MOIN*%
G70*
G04*
G04 #@! TF.SameCoordinates,BFF4783A-9A9A-4BA5-AF34-FCE32B05B8FC*
G04*
G04*
G04 #@! TF.FilePolarity,Negative*
G04*
G01*
G75*
%ADD21C,0.06706*%
%ADD22R,0.06706X0.06706*%
%ADD23C,0.08674*%
%ADD24R,0.08674X0.08674*%
%ADD25R,0.06706X0.06706*%
%ADD26C,0.06800*%
%ADD27R,0.06800X0.06800*%
%ADD28C,0.05800*%
D21*
X95000Y255000D02*
D03*
X125000D02*
D03*
X162657Y255118D02*
D03*
X177657Y235433D02*
D03*
X205157Y255118D02*
D03*
X235157D02*
D03*
X52500Y254685D02*
D03*
X67500Y235000D02*
D03*
X240000Y-45000D02*
D03*
X210000D02*
D03*
X182500D02*
D03*
X167500Y-25315D02*
D03*
X130000Y-45000D02*
D03*
X100000D02*
D03*
X72342Y-45118D02*
D03*
X57342Y-25433D02*
D03*
X62382Y60157D02*
D03*
Y90157D02*
D03*
X62382Y125157D02*
D03*
X82067Y140157D02*
D03*
D22*
X110000Y255000D02*
D03*
X220157Y255118D02*
D03*
X225000Y-45000D02*
D03*
X115000D02*
D03*
D23*
X257500Y65000D02*
D03*
Y75000D02*
D03*
Y125000D02*
D03*
Y145000D02*
D03*
D24*
Y135000D02*
D03*
D25*
X62382Y75157D02*
D03*
D26*
X160000Y10000D02*
D03*
X170000D02*
D03*
X110000D02*
D03*
X120000D02*
D03*
X130000D02*
D03*
X140000D02*
D03*
X150000D02*
D03*
X230000Y200000D02*
D03*
X240000D02*
D03*
X180000D02*
D03*
X190000D02*
D03*
X200000D02*
D03*
X210000D02*
D03*
X220000D02*
D03*
X74000D02*
D03*
X84000D02*
D03*
X94000D02*
D03*
X104000D02*
D03*
X114000D02*
D03*
X124000D02*
D03*
X134000D02*
D03*
X144000D02*
D03*
X154000D02*
D03*
X250000Y10000D02*
D03*
X240000D02*
D03*
X230000D02*
D03*
X220000D02*
D03*
X210000D02*
D03*
D27*
X180000D02*
D03*
X250000Y200000D02*
D03*
X164000D02*
D03*
X200000Y10000D02*
D03*
D28*
X187500Y147500D02*
D03*
X220328Y64672D02*
D03*
M02*
